<svg width="24" height="25" viewBox="0 0 24 25" fill="none" xmlns="http://www.w3.org/2000/svg">
    <path
        d="M12 2.37305C6.5 2.37305 2 6.86305 2 12.393C2 17.393 5.66 21.543 10.44 22.293V15.293H7.9V12.393H10.44V10.183C10.44 7.67305 11.93 6.29305 14.22 6.29305C15.31 6.29305 16.45 6.48305 16.45 6.48305V8.95305H15.19C13.95 8.95305 13.56 9.72305 13.56 10.513V12.393H16.34L15.89 15.293H13.56V22.293C15.9164 21.9209 18.0622 20.7186 19.6099 18.9031C21.1576 17.0877 22.0053 14.7787 22 12.393C22 6.86305 17.5 2.37305 12 2.37305Z"
        fill="#080809" />
</svg>