<svg width="25" height="25" viewBox="0 0 25 25" fill="none" xmlns="http://www.w3.org/2000/svg">
    <path
        d="M9.1794 21.9502C10.1394 22.2402 11.1094 22.4102 12.1394 22.4102C14.7916 22.4102 17.3351 21.3566 19.2105 19.4812C21.0858 17.6059 22.1394 15.0623 22.1394 12.4102C22.1394 11.0969 21.8807 9.79658 21.3782 8.58332C20.8757 7.37007 20.1391 6.26767 19.2105 5.33909C18.2819 4.4105 17.1795 3.67391 15.9662 3.17136C14.753 2.66881 13.4526 2.41016 12.1394 2.41016C10.8262 2.41016 9.52583 2.66881 8.31257 3.17136C7.09931 3.67391 5.99692 4.4105 5.06834 5.33909C3.19297 7.21445 2.1394 9.75799 2.1394 12.4102C2.1394 16.6602 4.8094 20.3102 8.5794 21.7502C8.4894 20.9702 8.3994 19.6802 8.5794 18.7902L9.7294 13.8502C9.7294 13.8502 9.4394 13.2702 9.4394 12.3502C9.4394 10.9702 10.2994 9.94016 11.2794 9.94016C12.1394 9.94016 12.5394 10.5702 12.5394 11.3802C12.5394 12.2402 11.9694 13.4702 11.6794 14.6502C11.5094 15.6302 12.1994 16.4902 13.1994 16.4902C14.9794 16.4902 16.3594 14.5902 16.3594 11.9102C16.3594 9.51016 14.6394 7.87016 12.1694 7.87016C9.3494 7.87016 7.6894 9.97016 7.6894 12.1802C7.6894 13.0402 7.9694 13.9102 8.4294 14.4802C8.5194 14.5402 8.5194 14.6202 8.4894 14.7702L8.1994 15.8602C8.1994 16.0302 8.0894 16.0902 7.9194 15.9702C6.6394 15.4102 5.8994 13.5902 5.8994 12.1202C5.8994 8.96016 8.1394 6.09016 12.4594 6.09016C15.8994 6.09016 18.5794 8.56016 18.5794 11.8402C18.5794 15.2802 16.4494 18.0402 13.3994 18.0402C12.4294 18.0402 11.4794 17.5202 11.1394 16.9102L10.4694 19.2802C10.2394 20.1402 9.6094 21.2902 9.1794 21.9802V21.9502Z"
        fill="#080809" />
</svg>