<svg width="1257" height="529" viewBox="0 0 1257 529" fill="none" xmlns="http://www.w3.org/2000/svg">
<g opacity="0.1">
<mask id="mask0_1542_1036" style="mask-type:alpha" maskUnits="userSpaceOnUse" x="791" y="0" width="466" height="372">
<path d="M791.5 0.5H1233C1245.98 0.5 1256.5 11.0213 1256.5 24V371.022H841C813.662 371.022 791.5 348.86 791.5 321.522V0.5Z" fill="url(#paint0_linear_1542_1036)" stroke="#6246E5"/>
</mask>
<g mask="url(#mask0_1542_1036)">
<path d="M1231.33 206.663C1231.33 233.375 1214.58 257.627 1187.36 275.225C1160.14 292.819 1122.51 303.718 1080.92 303.718C1039.32 303.718 1001.69 292.819 974.475 275.225C947.251 257.627 930.501 233.375 930.501 206.663C930.501 179.95 947.251 155.698 974.475 138.101C1001.69 120.506 1039.32 109.608 1080.92 109.608C1122.51 109.608 1160.14 120.506 1187.36 138.101C1214.58 155.698 1231.33 179.95 1231.33 206.663Z" stroke="#6246E5"/>
<path d="M1237.29 196.393C1237.29 226.296 1218.54 253.436 1188.08 273.124C1157.63 292.809 1115.53 305.001 1069 305.001C1022.47 305.001 980.375 292.809 949.923 273.124C919.465 253.436 900.715 226.296 900.715 196.393C900.715 166.491 919.465 139.351 949.923 119.663C980.375 99.9777 1022.47 87.7859 1069 87.7859C1115.53 87.7859 1157.63 99.9777 1188.08 119.663C1218.54 139.351 1237.29 166.491 1237.29 196.393Z" stroke="#6246E5"/>
<path d="M1243.25 188.05C1243.25 220.788 1222.72 250.495 1189.39 272.042C1156.06 293.585 1109.99 306.927 1059.07 306.927C1008.16 306.927 962.089 293.585 928.762 272.042C895.429 250.495 874.901 220.788 874.901 188.05C874.901 155.312 895.429 125.605 928.762 104.058C962.089 82.5147 1008.16 69.1736 1059.07 69.1736C1109.99 69.1736 1156.06 82.5147 1189.39 104.058C1222.72 125.605 1243.25 155.312 1243.25 188.05Z" stroke="#6246E5"/>
<path d="M1247.22 175.855C1247.22 211.075 1225.13 243.028 1189.29 266.201C1153.44 289.37 1103.9 303.717 1049.15 303.717C994.393 303.717 944.847 289.37 909.004 266.201C873.157 243.028 851.072 211.075 851.072 175.855C851.072 140.636 873.157 108.682 909.004 85.5099C944.847 62.3405 994.393 47.9937 1049.15 47.9937C1103.9 47.9937 1153.44 62.3405 1189.29 85.5099C1225.13 108.682 1247.22 140.636 1247.22 175.855Z" stroke="#6246E5"/>
<path d="M1251.19 163.982C1251.19 201.595 1227.6 235.714 1189.33 260.455C1151.06 285.192 1098.17 300.508 1039.71 300.508C981.259 300.508 928.362 285.192 890.094 260.455C851.821 235.714 828.236 201.595 828.236 163.982C828.236 126.37 851.821 92.2505 890.094 67.51C928.362 42.7727 981.259 27.4561 1039.71 27.4561C1098.17 27.4561 1151.06 42.7727 1189.33 67.51C1227.6 92.2505 1251.19 126.37 1251.19 163.982Z" stroke="#6246E5"/>
<path d="M1256.15 150.504C1256.15 191.838 1230.24 229.327 1188.19 256.507C1146.15 283.683 1088.04 300.508 1023.83 300.508C959.616 300.508 901.506 283.683 859.465 256.507C817.419 229.327 791.5 191.838 791.5 150.504C791.5 109.17 817.419 71.6812 859.465 44.5016C901.506 17.3252 959.616 0.5 1023.83 0.5C1088.04 0.5 1146.15 17.3252 1188.19 44.5016C1230.24 71.6812 1256.15 109.17 1256.15 150.504Z" stroke="#6246E5"/>
</g>
</g>
<g opacity="0.1">
<mask id="mask1_1542_1036" style="mask-type:alpha" maskUnits="userSpaceOnUse" x="0" y="66" width="555" height="463">
<rect x="554.5" y="66.5" width="462" height="554" transform="rotate(90 554.5 66.5)" fill="url(#paint1_linear_1542_1036)" stroke="#6246E5"/>
</mask>
<g mask="url(#mask1_1542_1036)">
<path d="M165.407 464.657C91.139 464.657 30.9397 404.924 30.9397 331.247C30.9397 257.571 91.139 197.838 165.407 197.838C239.675 197.838 299.874 257.571 299.874 331.247C299.874 404.924 239.675 464.657 165.407 464.657Z" stroke="#6246E5"/>
<path d="M179.614 469.943C96.519 469.943 29.1638 403.11 29.1638 320.675C29.1638 238.241 96.519 171.408 179.614 171.408C262.709 171.408 330.064 238.241 330.064 320.675C330.064 403.11 262.709 469.943 179.614 469.943Z" stroke="#6246E5"/>
<path d="M191.157 475.229C100.216 475.229 26.4999 402.085 26.4999 311.866C26.4999 221.646 100.216 148.502 191.157 148.502C282.099 148.502 355.814 221.646 355.814 311.866C355.814 402.085 282.099 475.229 191.157 475.229Z" stroke="#6246E5"/>
<path d="M208.028 478.753C110.222 478.753 30.94 400.087 30.94 303.056C30.94 206.025 110.222 127.359 208.028 127.359C305.835 127.359 385.117 206.025 385.117 303.056C385.117 400.087 305.835 478.753 208.028 478.753Z" stroke="#6246E5"/>
<path d="M224.455 482.277C120.028 482.277 35.3795 398.286 35.3795 294.687C35.3795 191.087 120.028 107.096 224.455 107.096C328.883 107.096 413.531 191.087 413.531 294.687C413.531 398.286 328.883 482.277 224.455 482.277Z" stroke="#6246E5"/>
<path d="M243.102 486.682C128.376 486.682 35.3795 394.408 35.3795 280.591C35.3795 166.774 128.376 74.5 243.102 74.5C357.828 74.5 450.824 166.774 450.824 280.591C450.824 394.408 357.828 486.682 243.102 486.682Z" stroke="#6246E5"/>
</g>
</g>
<defs>
<linearGradient id="paint0_linear_1542_1036" x1="1121.51" y1="10.4235" x2="987.573" y2="433.718" gradientUnits="userSpaceOnUse">
<stop stop-color="#747DEF"/>
<stop offset="1" stop-color="#5E3BE1"/>
</linearGradient>
<linearGradient id="paint1_linear_1542_1036" x1="883.378" y1="81.5711" x2="613.514" y2="648.837" gradientUnits="userSpaceOnUse">
<stop stop-color="#747DEF"/>
<stop offset="1" stop-color="#5E3BE1"/>
</linearGradient>
</defs>
</svg>
